<?xml version="1.0" encoding="UTF-8" standalone="no"?><!DOCTYPE svg PUBLIC "-//W3C//DTD SVG 1.1//EN" "http://www.w3.org/Graphics/SVG/1.1/DTD/svg11.dtd"><svg width="100%" height="100%" viewBox="0 0 235 43" version="1.1" xmlns="http://www.w3.org/2000/svg" xmlns:xlink="http://www.w3.org/1999/xlink" xml:space="preserve" xmlns:serif="http://www.serif.com/" style="fill-rule:evenodd;clip-rule:evenodd;stroke-linejoin:round;stroke-miterlimit:1.41421;"><g><path d="M69.774,7.404c-7.612,0 -13.832,6.221 -13.832,13.832c0,6.491 4.52,11.977 10.547,13.445l6.066,6.569l6.568,0l-6.065,-6.569c6.065,-1.468 10.547,-6.954 10.547,-13.445c0,-7.611 -6.182,-13.832 -13.831,-13.832Zm0,21.096c-3.98,0 -7.264,-3.246 -7.264,-7.264c0,-4.018 3.284,-7.263 7.264,-7.263c4.018,0 7.263,3.245 7.263,7.263c0,4.018 -3.245,7.264 -7.263,7.264Z" style="fill:#fff;fill-rule:nonzero;"/><path d="M106.323,23.168c0,2.936 -2.395,5.332 -5.37,5.332c-2.937,0 -5.371,-2.396 -5.371,-5.332l0,-15.416l-6.568,0l0,15.416c0,6.568 5.371,11.938 11.939,11.938c6.607,0 11.977,-5.37 11.977,-11.938l0,-15.416l-6.607,0l0,15.416Z" style="fill:#fff;fill-rule:nonzero;"/><path d="M119.884,34.72l21.134,0l0,-6.568l-14.565,0l0,-3.593l11.397,0l0,-6.568l-11.397,0l0,-3.593l14.565,0l0,-6.607l-21.134,0l0,26.929Z" style="fill:#fff;fill-rule:nonzero;"/><path d="M167.484,34.797l7.109,0l-10.432,-27.006l-6.954,0l-10.393,27.006l7.109,0l1.275,-3.322l11.011,0l1.275,3.322Zm-9.775,-9.89l2.975,-7.805l3.014,7.805l-5.989,0Z" style="fill:#fff;fill-rule:nonzero;"/><path d="M189.352,13.084c2.666,-0.657 5.641,0.309 7.457,2.357c1.004,-0.966 2.047,-1.932 3.013,-2.898l2.203,-2.125c-2.087,-1.661 -4.559,-2.782 -7.148,-3.284c-2.511,-0.502 -5.139,-0.464 -7.611,0.232c-2.009,0.541 -3.941,1.468 -5.294,3.013c-1.275,1.353 -2.009,3.207 -2.047,5.062c0,1.854 0.657,3.709 1.932,5.061c1.197,1.352 2.859,2.164 4.559,2.743c1.7,0.58 3.477,0.927 5.177,1.507c1.082,0.348 2.202,0.811 2.743,2.009c0.039,0.077 0.077,0.193 0.116,0.348c0.27,1.816 -1.584,2.511 -3.13,2.55c-2.82,0.077 -5.679,-1.082 -7.688,-3.091l-5.293,4.907c2.781,2.627 6.568,4.018 10.393,4.288c2.318,0.155 4.752,-0.077 6.916,-1.004c2.163,-0.928 4.095,-2.55 5.138,-4.637c1.082,-2.125 1.159,-4.713 0.077,-6.8c-0.579,-1.159 -1.506,-2.086 -2.549,-2.82c-0.735,-0.502 -1.546,-0.927 -2.357,-1.275c-2.009,-0.85 -4.173,-1.314 -6.221,-1.97c-0.888,-0.309 -1.777,-0.619 -2.279,-1.507l-0.116,-0.271c-0.386,-1.352 0.889,-2.125 2.009,-2.395Z" style="fill:#fff;fill-rule:nonzero;"/><path d="M234.479,7.752l-7.496,0l-6.375,11.205l-6.374,-11.205l-7.573,0l10.663,18.739l0,8.306l6.569,0l0,-8.306l10.586,-18.739Z" style="fill:#fff;fill-rule:nonzero;"/><g><path d="M17.099,36.648c-4.543,-10.065 -8.679,-20.209 -10.652,-30.861c4.802,0.924 9.615,1.86 14.416,2.784c-1.882,9.378 -2.829,18.722 -3.764,28.077Z" style="fill:#fff;"/><path d="M22.509,9.124c3.393,0.653 6.774,1.307 10.155,1.961c-5.263,8.352 -9.941,16.862 -14.483,25.405c0.969,-9.299 2.119,-18.518 4.328,-27.366Z" style="fill:#fff;"/><path d="M33.814,11.367c2.592,0.495 5.185,1.003 7.777,1.51c-8.746,6.954 -15.633,14.619 -21.348,22.723c4.024,-8.285 8.352,-16.445 13.571,-24.233Z" style="fill:#fff;"/><path d="M31.086,30.066c7.293,18.248 -20.581,13.244 -29.948,-10.46c-0.383,2.626 -0.766,5.252 -1.138,7.867c0.62,-1.071 1.24,-2.141 1.86,-3.212c15.115,26.454 46.55,19.364 29.226,5.805Z" style="fill:#fff;"/><path d="M13.518,0.164c1.563,-0.539 3.269,0.292 3.808,1.855c0.539,1.562 -0.292,3.268 -1.854,3.807c-1.563,0.539 -3.269,-0.292 -3.808,-1.854c-0.539,-1.563 0.292,-3.269 1.854,-3.808Z" style="fill:#fff;"/><path d="M27.373,4.279c1.205,-0.416 2.521,0.225 2.937,1.43c0.416,1.205 -0.225,2.521 -1.43,2.936c-1.205,0.416 -2.521,-0.225 -2.937,-1.43c-0.416,-1.205 0.225,-2.521 1.43,-2.936Z" style="fill:#fff;"/><path d="M37.87,8.427c0.754,-0.26 1.576,0.14 1.836,0.894c0.26,0.753 -0.14,1.576 -0.894,1.836c-0.753,0.26 -1.576,-0.141 -1.836,-0.894c-0.26,-0.754 0.141,-1.576 0.894,-1.836Z" style="fill:#fff;"/></g></g></svg>